<?xml version="1.0" encoding="utf-8"?>
<!-- Generator: Adobe Illustrator 16.0.0, SVG Export Plug-In . SVG Version: 6.00 Build 0)  -->
<!DOCTYPE svg PUBLIC "-//W3C//DTD SVG 1.1//EN" "http://www.w3.org/Graphics/SVG/1.1/DTD/svg11.dtd">
<svg version="1.1" id="Layer_1" xmlns="http://www.w3.org/2000/svg" xmlns:xlink="http://www.w3.org/1999/xlink" x="0px" y="0px"
	 width="500px" height="500px" viewBox="0 0 500 500" enable-background="new 0 0 500 500" xml:space="preserve">
<g>
	<g>
		<path fill="none" stroke="#FFFFFF" stroke-width="4" stroke-miterlimit="10" d="M472,148c0,3.313-2.438,6-5.75,6h-32l-20.333,15
			l-0.333-15H393.25c-3.313,0-6.25-2.687-6.25-6V96c0-3.313,2.938-6,6.25-6h73c3.313,0,5.75,2.687,5.75,6V148z"/>
		<g>
			
				<ellipse fill="none" stroke="#FFFFFF" stroke-width="3" stroke-miterlimit="10" cx="428.417" cy="127.167" rx="8.333" ry="11.333"/>
			<path fill="none" stroke="#FFFFFF" stroke-width="3" stroke-miterlimit="10" d="M422.983,118.586
				c-0.975-2.14,0.679-8.868,4.601-8.919c4.5-0.059,5.666,2.833,6.333,9"/>
			<g>
				
					<polyline fill="none" stroke="#FFFFFF" stroke-width="3" stroke-linecap="round" stroke-linejoin="round" stroke-miterlimit="10" points="
					436.751,121 440.751,118 438.751,112.5 442.751,108.167 				"/>
				
					<polyline fill="none" stroke="#FFFFFF" stroke-width="3" stroke-linecap="round" stroke-linejoin="round" stroke-miterlimit="10" points="
					438,126.5 445.25,126.5 444.084,131.833 448.292,134.917 				"/>
				
					<polyline fill="none" stroke="#FFFFFF" stroke-width="3" stroke-linecap="round" stroke-linejoin="round" stroke-miterlimit="10" points="
					436.751,133.167 440.751,135 438.25,142.5 440.917,144.5 				"/>
				
					<polyline fill="none" stroke="#FFFFFF" stroke-width="3" stroke-linecap="round" stroke-linejoin="round" stroke-miterlimit="10" points="
					429.75,110 430.75,106 433.584,103.333 				"/>
			</g>
			<g>
				
					<polyline fill="none" stroke="#FFFFFF" stroke-width="3" stroke-linecap="round" stroke-linejoin="round" stroke-miterlimit="10" points="
					420.417,121 416.417,118 418.417,112.5 414.417,108.167 				"/>
				
					<polyline fill="none" stroke="#FFFFFF" stroke-width="3" stroke-linecap="round" stroke-linejoin="round" stroke-miterlimit="10" points="
					419,126.5 411.918,126.5 413.084,131.833 408.792,134.917 				"/>
				
					<polyline fill="none" stroke="#FFFFFF" stroke-width="3" stroke-linecap="round" stroke-linejoin="round" stroke-miterlimit="10" points="
					420.417,133.167 416.417,135 418.918,142.5 416.251,144.5 				"/>
				
					<polyline fill="none" stroke="#FFFFFF" stroke-width="3" stroke-linecap="round" stroke-linejoin="round" stroke-miterlimit="10" points="
					425.418,110 424.418,106 421.584,103.333 				"/>
			</g>
			
				<polyline fill="none" stroke="#FFFFFF" stroke-width="3" stroke-linecap="round" stroke-linejoin="round" stroke-miterlimit="10" points="
				421.751,120.833 428.418,127.167 433.917,121.5 			"/>
			
				<line fill="none" stroke="#FFFFFF" stroke-width="3" stroke-linecap="round" stroke-linejoin="round" stroke-miterlimit="10" x1="427.5" y1="127" x2="427.5" y2="138"/>
		</g>
	</g>
	<g>
		<path fill="none" stroke="#FFFFFF" stroke-width="4" stroke-miterlimit="10" d="M365,140v-10.125l-8.43-4.277
			c-0.581-1.781-1.25-3.493-2.124-5.118l2.53-9.5l-7.055-7.071l-9.399,3.136c-1.285-0.626-2.617-1.351-3.993-1.8L331.25,96h-10
			l-4.578,9.344c-1.439,0.486-2.834,1.167-4.173,1.847l-10.146-2.623l-7.07,7.095l3.236,9.722c-0.611,1.233-1.268,2.519-1.715,3.837
			L287,130.875V141"/>
		<path fill="none" stroke="#FFFFFF" stroke-width="4" stroke-miterlimit="10" d="M311.82,140.999c-0.69-1.74-1.07-3.638-1.07-5.624
			c0-8.422,6.827-15.25,15.25-15.25s15.25,6.828,15.25,15.25c0,1.986-0.38,3.885-1.071,5.625"/>
	</g>
	<g>
		<path fill="none" stroke="#FFFFFF" stroke-width="4" stroke-miterlimit="10" d="M375,262c0,3.313-2.688,6-6,6H202
			c-3.313,0-6-2.688-6-6V148c0-3.313,2.687-6,6-6h167c3.313,0,6,2.687,6,6V262z"/>
		<line fill="none" stroke="#FFFFFF" stroke-width="4" stroke-miterlimit="10" x1="242" y1="142" x2="242" y2="268"/>
		<line fill="none" stroke="#FFFFFF" stroke-width="4" stroke-miterlimit="10" x1="196" y1="159" x2="375" y2="159"/>
		<circle fill="#FFFFFF" cx="205.25" cy="151" r="3"/>
		<circle fill="#FFFFFF" cx="215.25" cy="151" r="3"/>
		<circle fill="#FFFFFF" cx="225.25" cy="151" r="3"/>
		
			<line fill="none" stroke="#FFFFFF" stroke-width="4" stroke-linecap="round" stroke-miterlimit="10" x1="253" y1="177" x2="266" y2="177"/>
		
			<line fill="none" stroke="#FFFFFF" stroke-width="4" stroke-linecap="round" stroke-miterlimit="10" x1="276" y1="177" x2="316" y2="177"/>
		
			<line fill="none" stroke="#FFFFFF" stroke-width="4" stroke-linecap="round" stroke-miterlimit="10" x1="324" y1="177" x2="352" y2="177"/>
		
			<line fill="none" stroke="#FFFFFF" stroke-width="4" stroke-linecap="round" stroke-miterlimit="10" x1="253" y1="190" x2="311" y2="190"/>
		
			<line fill="none" stroke="#FFFFFF" stroke-width="4" stroke-linecap="round" stroke-miterlimit="10" x1="320" y1="190" x2="345" y2="190"/>
		
			<line fill="none" stroke="#FFFFFF" stroke-width="4" stroke-linecap="round" stroke-miterlimit="10" x1="253" y1="201" x2="278" y2="201"/>
		
			<line fill="none" stroke="#FFFFFF" stroke-width="4" stroke-linecap="round" stroke-miterlimit="10" x1="288" y1="201" x2="320" y2="201"/>
		
			<line fill="none" stroke="#FFFFFF" stroke-width="4" stroke-linecap="round" stroke-miterlimit="10" x1="253" y1="213" x2="304" y2="213"/>
		
			<line fill="none" stroke="#FFFFFF" stroke-width="4" stroke-linecap="round" stroke-miterlimit="10" x1="314" y1="213" x2="328" y2="213"/>
		
			<line fill="none" stroke="#FFFFFF" stroke-width="4" stroke-linecap="round" stroke-miterlimit="10" x1="253" y1="225" x2="278" y2="225"/>
		
			<line fill="none" stroke="#FFFFFF" stroke-width="4" stroke-linecap="round" stroke-miterlimit="10" x1="288" y1="225" x2="314" y2="225"/>
	</g>
	<g>
		<path fill="none" stroke="#FFFFFF" stroke-width="4" stroke-linecap="round" stroke-miterlimit="10" d="M324.25,356h-27
			c-3.313,0-6.25-2.688-6.25-6v-42c0-3.313,2.938-6,6.25-6h35c3.313,0,5.75,2.688,5.75,6v34L324.25,356z"/>
		<polyline fill="none" stroke="#FFFFFF" stroke-width="4" stroke-linecap="round" stroke-miterlimit="10" points="323,356 323,339 
			338,339 		"/>
	</g>
	<g>
		<path fill="none" stroke="#FFFFFF" stroke-width="4" stroke-linecap="round" stroke-miterlimit="10" d="M452,430
			c0,3.313-2.688,6-6,6h-74c-3.313,0-6-2.688-6-6V284c0-3.313,2.688-6,6-6h74c3.313,0,6,2.688,6,6V430z"/>
		
			<line fill="none" stroke="#FFFFFF" stroke-width="4" stroke-linecap="round" stroke-miterlimit="10" x1="366" y1="407" x2="452" y2="407"/>
		
			<circle fill="none" stroke="#FFFFFF" stroke-width="4" stroke-linecap="round" stroke-miterlimit="10" cx="409.369" cy="421.233" r="5.569"/>
		
			<line fill="none" stroke="#FFFFFF" stroke-width="4" stroke-linecap="round" stroke-miterlimit="10" x1="381" y1="378" x2="436" y2="378"/>
		
			<line fill="none" stroke="#FFFFFF" stroke-width="4" stroke-linecap="round" stroke-miterlimit="10" x1="396" y1="388" x2="421" y2="388"/>
		
			<line fill="none" stroke="#FFFFFF" stroke-width="4" stroke-linecap="round" stroke-linejoin="round" stroke-miterlimit="10" x1="408" y1="291" x2="426" y2="291"/>
		<polygon fill="none" stroke="#FFFFFF" stroke-width="4" stroke-linecap="round" stroke-miterlimit="10" points="423,350.339 
			408.5,359 394,350.34 394,333.02 408.5,324.359 423,333.02 		"/>
		
			<line fill="none" stroke="#FFFFFF" stroke-width="4" stroke-linecap="round" stroke-miterlimit="10" x1="374" y1="302" x2="442" y2="302"/>
		<circle fill="#FFFFFF" cx="397.25" cy="291.666" r="3"/>
	</g>
	<g>
		<rect x="172" y="423" fill="none" stroke="#FFFFFF" stroke-width="4" stroke-miterlimit="10" width="142" height="16"/>
		<polygon fill="none" stroke="#FFFFFF" stroke-width="4" stroke-miterlimit="10" points="170.302,423 144.49,430.755 169.25,439 
			173,439 173,423 		"/>
		<line fill="none" stroke="#FFFFFF" stroke-width="4" stroke-miterlimit="10" x1="153" y1="427" x2="153" y2="432"/>
		
			<line fill="none" stroke="#FFFFFF" stroke-width="4" stroke-linecap="round" stroke-miterlimit="10" x1="183" y1="431" x2="303" y2="431"/>
		
			<rect x="314" y="423" fill="none" stroke="#FFFFFF" stroke-width="4" stroke-linecap="round" stroke-miterlimit="10" width="15" height="16"/>
		
			<line fill="none" stroke="#FFFFFF" stroke-width="4" stroke-linecap="round" stroke-miterlimit="10" x1="321" y1="425" x2="321" y2="439"/>
		
			<rect x="329" y="423" fill="none" stroke="#FFFFFF" stroke-width="4" stroke-linecap="round" stroke-miterlimit="10" width="17" height="16"/>
	</g>
	<g>
		<path fill="none" stroke="#FFFFFF" stroke-width="4" stroke-linecap="round" stroke-miterlimit="10" d="M164.917,83l5.508,3.769
			c0.454,0.311,1.041,0.17,1.304-0.313l7.521-13.789"/>
		
			<circle fill="none" stroke="#FFFFFF" stroke-width="4" stroke-linecap="round" stroke-miterlimit="10" cx="173" cy="79.75" r="18.75"/>
		<path fill="none" stroke="#FFFFFF" stroke-width="4" stroke-linecap="round" stroke-miterlimit="10" d="M174,99v108
			c0,3.313-2.437,6-5.75,6h-71c-3.313,0-6.25-2.687-6.25-6V83c0-3.313,2.937-6,6.25-6H154"/>
		<path fill="none" stroke="#FFFFFF" stroke-width="4" stroke-linecap="round" stroke-miterlimit="10" d="M113.065,132.753
			c-8.921-3.913-16.384-10.309-21.404-18.252"/>
		<path fill="none" stroke="#FFFFFF" stroke-width="4" stroke-linecap="round" stroke-miterlimit="10" d="M174.089,116.377
			c-4.973,7.075-11.947,12.776-20.154,16.376"/>
		
			<circle fill="none" stroke="#FFFFFF" stroke-width="4" stroke-linecap="round" stroke-miterlimit="10" cx="133.5" cy="132.75" r="18.25"/>
		<path fill="none" stroke="#FFFFFF" stroke-width="4" stroke-linecap="round" stroke-miterlimit="10" d="M156,171.75
			c0,2.899-2.351,5.25-5.25,5.25h-35.5c-2.899,0-5.25-2.351-5.25-5.25v-0.5c0-2.899,2.351-5.25,5.25-5.25h35.5
			c2.899,0,5.25,2.351,5.25,5.25V171.75z"/>
		<path fill="#FFFFFF" stroke="#FFFFFF" stroke-width="4" stroke-linecap="round" stroke-miterlimit="10" d="M156,193.75
			c0,2.899-2.351,5.25-5.25,5.25h-35.5c-2.899,0-5.25-2.351-5.25-5.25v-0.5c0-2.899,2.351-5.25,5.25-5.25h35.5
			c2.899,0,5.25,2.351,5.25,5.25V193.75z"/>
	</g>
	<g>
		<g>
			<path fill="none" stroke="#FFFFFF" stroke-width="3" stroke-miterlimit="10" d="M31.75,223.5c-2.2,0-4.25,1.8-4.25,4v93
				c0,2.2,2.05,4,4.25,4h128c2.2,0,3.75-1.8,3.75-4v-78c0-2.2-1.55-4-3.75-4h-60.5c-2.2,0-5.125-1.406-6.499-3.124l-7.002-8.753
				c-1.375-1.718-4.299-3.124-6.499-3.124L31.75,223.5L31.75,223.5z"/>
		</g>
		<g>
			<path fill="none" stroke="#FFFFFF" stroke-width="3" stroke-miterlimit="10" d="M87,228.5h64.75c2.2,0,3.75,1.8,3.75,4v6.5"/>
		</g>
		
			<line fill="none" stroke="#FFFFFF" stroke-width="3" stroke-linecap="round" stroke-linejoin="round" stroke-miterlimit="10" x1="88" y1="269.5" x2="131" y2="269.5"/>
		
			<line fill="none" stroke="#FFFFFF" stroke-width="3" stroke-linecap="round" stroke-linejoin="round" stroke-miterlimit="10" x1="88" y1="277.5" x2="114" y2="277.5"/>
		
			<circle fill="none" stroke="#FFFFFF" stroke-width="3" stroke-linecap="round" stroke-linejoin="round" stroke-miterlimit="10" cx="61.75" cy="274.5" r="14.5"/>
		
			<polygon fill="none" stroke="#FFFFFF" stroke-width="3" stroke-linecap="round" stroke-linejoin="round" stroke-miterlimit="10" points="
			58.5,281 58.5,269 67,275.5 		"/>
	</g>
	<g>
		<path fill="none" stroke="#FFFFFF" stroke-width="4" stroke-linecap="round" stroke-miterlimit="10" d="M61,324v9.5
			c0,3.3,3.45,6.5,6.75,6.5H290"/>
		
			<rect x="168.5" y="388.5" fill="none" stroke="#FFFFFF" stroke-width="3" stroke-linecap="round" stroke-miterlimit="10" width="118" height="12"/>
		<path fill="none" stroke="#FFFFFF" stroke-width="4" stroke-linecap="round" stroke-miterlimit="10" d="M90.746,109.468
			l-23.558,0.023C63.888,109.496,61,112.2,61,115.5V223"/>
		
			<line fill="none" stroke="#FFFFFF" stroke-width="4" stroke-linecap="round" stroke-miterlimit="10" x1="338" y1="340" x2="365" y2="340"/>
		
			<line fill="none" stroke="#FFFFFF" stroke-width="4" stroke-linecap="round" stroke-miterlimit="10" x1="395" y1="277" x2="395" y2="155"/>
		
			<rect x="202" y="340" fill="none" stroke="#FFFFFF" stroke-width="4" stroke-linecap="round" stroke-miterlimit="10" width="50" height="48"/>
		
			<circle fill="none" stroke="#FFFFFF" stroke-width="4" stroke-linecap="round" stroke-miterlimit="10" cx="228.011" cy="322.599" r="8.761"/>
		
			<line fill="none" stroke="#FFFFFF" stroke-width="4" stroke-linecap="round" stroke-miterlimit="10" x1="338" y1="305" x2="363" y2="305"/>
		
			<line fill="none" stroke="#FFFFFF" stroke-width="4" stroke-linecap="round" stroke-miterlimit="10" x1="164" y1="305" x2="291" y2="305"/>
		
			<line fill="none" stroke="#FFFFFF" stroke-width="4" stroke-linecap="round" stroke-miterlimit="10" x1="355" y1="110" x2="386" y2="110"/>
		
			<line fill="none" stroke="#FFFFFF" stroke-width="4" stroke-linecap="round" stroke-miterlimit="10" x1="174" y1="111" x2="297" y2="111"/>
	</g>
</g>
</svg>
