<?xml version="1.0" encoding="utf-8"?>
<!-- Generator: Adobe Illustrator 16.0.0, SVG Export Plug-In . SVG Version: 6.00 Build 0)  -->
<!DOCTYPE svg PUBLIC "-//W3C//DTD SVG 1.1//EN" "http://www.w3.org/Graphics/SVG/1.1/DTD/svg11.dtd">
<svg version="1.1" id="Layer_1" xmlns="http://www.w3.org/2000/svg" xmlns:xlink="http://www.w3.org/1999/xlink" x="0px" y="0px"
	 width="70px" height="70px" viewBox="0 0 70 70" enable-background="new 0 0 70 70" xml:space="preserve">
<path fill="#FFFFFF" d="M21,24H3c-1.657,0-3-1.343-3-3s1.343-3,3-3h18c1.657,0,3,1.343,3,3S22.657,24,21,24z"/>
<path fill="#FFFFFF" d="M21,56H3c-1.657,0-3-1.343-3-3V37c0-1.657,1.343-3,3-3h18c1.657,0,3,1.343,3,3c0,1.657-1.343,3-3,3H6v10h15
	c1.657,0,3,1.343,3,3S22.657,56,21,56z"/>
<path fill="#FFFFFF" d="M35,55c-1.657,0-3-1.343-3-3V36c0-1.657,1.343-3,3-3c1.657,0,3,1.343,3,3v16C38,53.657,36.657,55,35,55z"/>
<path fill="#FFFFFF" d="M67,55c-1.657,0-3-1.343-3-3V26.889L52.232,37.252c-1.195,1.05-2.999,0.986-4.115-0.143l-14.584-14.75
	c-1.165-1.178-1.154-3.078,0.024-4.243c1.178-1.166,3.078-1.154,4.242,0.024l12.594,12.736l14.625-12.878
	c0.885-0.779,2.144-0.967,3.218-0.482C69.31,18.001,70,19.071,70,20.25V52C70,53.657,68.657,55,67,55z"/>
</svg>
